<svg xmlns="http://www.w3.org/2000/svg" viewBox="0 0 95.24 19.43"><defs><style>.cls-1{fill:#f15a24;}.cls-2{fill:#fff;}.cls-3{fill:#fbb03b;}</style></defs><g id="Laag_2" data-name="Laag 2"><g id="Laag_1-2" data-name="Laag 1"><path class="cls-1" d="M18.85,11.47c-1.13,2.15-2.76,5.23-4.4,5.34s-3.68-2.7-5.1-4.67S5.07,4.92,7,2.58,13.27,0,13.27,0s4.23-.4,6.52,1.64S20,9.33,18.85,11.47Z"/><path class="cls-2" d="M23.37,15,25,14.71h.29l1.51.24v.86H23.37Zm4.54-9.66h1.65l3.59,10.52H30.42L27.7,7.23l.59-.81-3.05,9.39H24.3Zm-1.72,6.54H30.5l.36.93H25.92ZM28.88,15l1.8-.24h1.07l2,.24v.83H28.88Z"/><path class="cls-2" d="M35.35,12.45v-.93c0-.88,0-1.2-.05-1.84l-1-.15V8.9l3.15-1.06.28.17.14,2v2.47c0,1,0,2.64,0,3.36H35.3C35.33,15.09,35.35,13.44,35.35,12.45Zm-.9,2.61L36,14.74h1.68l1.53.32v.75H34.45Zm2.26-4.72h1.2l-.22.44c.29-2,1.4-2.94,2.35-2.94A1.32,1.32,0,0,1,41.43,9c0,.83-.49,1.3-1.13,1.3a1.49,1.49,0,0,1-1.24-.74L38.59,9l.65.24a3.84,3.84,0,0,0-1.36,2.21l-1.17-.11Z"/><path class="cls-2" d="M42.82,11.53c0-.88,0-1.21,0-1.85l-1-.15V8.9l3.13-1.06.26.15.1,1.24.08.24v5l0,.2v1.15c0,1,0,2.18,0,3.59H42.78c0-1.41,0-2.57,0-3.58Zm3.56,7.15v.75H41.91v-.75l1.53-.32H45Zm.08-9.45c-.84,0-1.56.89-2.08,1.42l-.14-.26c.91-1.72,2-2.55,3.38-2.55,1.74,0,3.13,1.41,3.13,4.07s-1.61,4.14-3.41,4.14c-1.44,0-2.28-.82-3-2.47l.14-.29c.66.88,1.13,1.41,1.92,1.41,1,0,1.63-.86,1.63-2.75S47.4,9.23,46.46,9.23Z"/><path class="cls-2" d="M59.19,11.22a3.72,3.72,0,0,1-.09.86H52.85v-.85h3c.77,0,1-.28,1-1,0-1.05-.5-1.57-1.08-1.57s-1.27.73-1.27,3c0,2,1,2.82,2.15,2.82a2.58,2.58,0,0,0,1.94-.85l.55.51a3.49,3.49,0,0,1-3.35,1.87,3.79,3.79,0,0,1-4-4.1,4,4,0,0,1,4.12-4.11A3.14,3.14,0,0,1,59.19,11.22Z"/><path class="cls-2" d="M66,17.27c0-.47-.31-.92-1.17-.92H63.13a4.32,4.32,0,0,1-1.71-.25V16a1.41,1.41,0,0,1-1.15-1.37c0-.83.59-1.57,1.58-2.35l.42.27a1.43,1.43,0,0,0-.35,1c0,.37.24.6.93.6h1.86c2.44,0,3.29,1,3.29,2.34,0,1.62-1.62,3-4.7,3-2.64,0-3.42-.89-3.42-1.86,0-.79.58-1.41,1.79-1.83l.23.14a1.87,1.87,0,0,0-.47,1.25c0,.95.68,1.35,2.13,1.35C65.17,18.48,66,18,66,17.27ZM63.57,7.84c2.28,0,3.34,1.07,3.34,2.59S65.84,13,63.57,13s-3.34-1.08-3.34-2.55S61.3,7.84,63.57,7.84ZM62.5,10.41c0,1.13.32,1.81,1.06,1.81s1.1-.69,1.1-1.83S64.29,8.6,63.58,8.6,62.5,9.28,62.5,10.41Zm5.4-2.6.25.16V9.2H65.86V8.68Z"/><path class="cls-2" d="M74.5,17.27c0-.47-.31-.92-1.18-.92H71.65a4.32,4.32,0,0,1-1.71-.25V16a1.4,1.4,0,0,1-1.15-1.37c0-.83.58-1.57,1.58-2.35l.42.27a1.43,1.43,0,0,0-.35,1c0,.37.24.6.92.6h1.87c2.43,0,3.28,1,3.28,2.34,0,1.62-1.62,3-4.69,3-2.65,0-3.42-.89-3.42-1.86,0-.79.57-1.41,1.78-1.83l.23.14A1.85,1.85,0,0,0,70,17.13c0,.95.67,1.35,2.12,1.35C73.68,18.48,74.5,18,74.5,17.27ZM72.09,7.84c2.27,0,3.34,1.07,3.34,2.59S74.36,13,72.09,13s-3.35-1.08-3.35-2.55S69.82,7.84,72.09,7.84ZM71,10.41c0,1.13.33,1.81,1.06,1.81s1.11-.69,1.11-1.83S72.8,8.6,72.09,8.6,71,9.28,71,10.41Zm5.4-2.6.25.16V9.2H74.37V8.68Z"/><path class="cls-2" d="M77.78,14.63a1.44,1.44,0,1,1,2.88,0,1.44,1.44,0,0,1-2.88,0Z"/><path class="cls-2" d="M82.93,15.81c0-.72,0-2.37,0-3.36v-.76c0-.88,0-1.37,0-2l-1-.15V8.9l3.35-1.06.27.17,0,2.32v2.12c0,1,0,2.64,0,3.36Zm3.41-.75v.75H82.1v-.75l1.48-.32h1.2ZM82.87,5.39a1.35,1.35,0,1,1,1.35,1.27A1.28,1.28,0,0,1,82.87,5.39Z"/><path class="cls-2" d="M87.12,11.91a4.06,4.06,0,1,1,8.12,0,4.06,4.06,0,1,1-8.12,0Zm5.41,0c0-2.27-.45-3.27-1.35-3.27s-1.35,1-1.35,3.27.45,3.27,1.35,3.27S92.53,14.23,92.53,12Z"/><path class="cls-3" d="M14.53,12.08c-.15,2.42-.35,5.9-1.79,6.68s-4.48-.94-6.58-2.13S-.73,11.82.09,8.87,4.71,4,4.71,4,8.4,1.86,11.33,2.77,14.67,9.66,14.53,12.08Z"/></g></g></svg>