<svg xmlns="http://www.w3.org/2000/svg" viewBox="0 0 82.24 40.11"><defs><style>.cls-1{fill:#f15a24;}.cls-2{fill:#fbb03b;}.cls-3{fill:#fff;}</style></defs><g id="Laag_2" data-name="Laag 2"><g id="Laag_1-2" data-name="Laag 1"><path class="cls-1" d="M50.33,12.27c-1.21,2.29-2.95,5.58-4.7,5.71s-3.94-2.89-5.46-5S35.59,5.26,37.7,2.75,44.36,0,44.36,0s4.53-.42,7,1.76S51.54,10,50.33,12.27Z"/><path class="cls-2" d="M45.71,12.92c-.15,2.59-.37,6.3-1.92,7.14s-4.78-1-7-2.28-7.37-5.14-6.48-8.29,4.93-5.24,4.93-5.24S39.16,2,42.29,3,45.87,10.33,45.71,12.92Z"/><path class="cls-3" d="M0,35l1.88-.28h.33L3.94,35v1H0ZM5.2,23.92H7.08L11.2,36H8.07L5,26.14l.69-.92L2.14,36H1.06Zm-2,7.48H8.17l.41,1.07H2.92ZM6.3,35l2.07-.28H9.59l2.35.28V36H6.3Z"/><path class="cls-3" d="M13.71,32.12V31.05c0-1,0-1.38-.06-2.11l-1.12-.16v-.72l3.61-1.22.31.2.17,2.25v2.83c0,1.13,0,3,.05,3.84h-3C13.69,35.14,13.71,33.25,13.71,32.12Zm-1,3,1.74-.37h1.93l1.74.37V36H12.68Zm2.59-5.41h1.37l-.25.5c.32-2.24,1.6-3.36,2.69-3.36a1.53,1.53,0,0,1,1.59,1.35c0,.95-.57,1.49-1.3,1.49A1.72,1.72,0,0,1,18,28.84l-.54-.7.74.27a4.36,4.36,0,0,0-1.55,2.53l-1.34-.13Z"/><path class="cls-3" d="M22.26,31.06c0-1,0-1.39-.05-2.12l-1.12-.16v-.72l3.58-1.22L25,27l.12,1.43.09.27v5.74l-.06.23V36c0,1.16,0,2.49.06,4.11h-3c0-1.62.05-2.94.05-4.11Zm4.07,8.18v.87H21.22v-.87L23,38.88h1.77Zm.1-10.81c-1,0-1.79,1-2.39,1.63l-.16-.31c1.05-2,2.26-2.91,3.87-2.91,2,0,3.58,1.62,3.58,4.66s-1.84,4.74-3.9,4.74c-1.65,0-2.61-.94-3.42-2.83l.17-.33c.75,1,1.28,1.61,2.19,1.61,1.09,0,1.87-1,1.87-3.15S27.5,28.43,26.43,28.43Z"/><path class="cls-3" d="M41,30.71a4.1,4.1,0,0,1-.1,1H33.73v-1h3.43c.88,0,1.11-.32,1.11-1.14,0-1.2-.58-1.79-1.24-1.79s-1.46.83-1.46,3.46c0,2.23,1.11,3.24,2.47,3.24a2.93,2.93,0,0,0,2.22-1l.63.59a4,4,0,0,1-3.83,2.14,4.34,4.34,0,0,1-4.56-4.69,4.58,4.58,0,0,1,4.71-4.71A3.59,3.59,0,0,1,41,30.71Z"/><path class="cls-3" d="M48.77,37.63c0-.54-.36-1.05-1.35-1.05H45.5a5.15,5.15,0,0,1-2-.28v-.12a1.61,1.61,0,0,1-1.31-1.56c0-1,.67-1.8,1.81-2.69l.48.3a1.67,1.67,0,0,0-.4,1.11c0,.43.28.69,1.06.69h2.13c2.79,0,3.76,1.08,3.76,2.67,0,1.86-1.85,3.41-5.37,3.41-3,0-3.92-1-3.92-2.14,0-.9.66-1.61,2-2.09l.26.16a2.13,2.13,0,0,0-.53,1.43c0,1.09.77,1.55,2.43,1.55C47.83,39,48.77,38.42,48.77,37.63ZM46,26.84c2.6,0,3.82,1.23,3.82,3S48.6,32.72,46,32.72s-3.82-1.24-3.82-2.92S43.41,26.84,46,26.84Zm-1.23,2.94c0,1.3.37,2.08,1.21,2.08s1.27-.8,1.27-2.1-.44-2.05-1.25-2.05S44.78,28.49,44.78,29.78Zm6.17-3,.29.19V28.4H48.62v-.6Z"/><path class="cls-3" d="M58.51,37.63c0-.54-.35-1.05-1.35-1.05H55.24a5.09,5.09,0,0,1-2-.28v-.12A1.62,1.62,0,0,1,52,34.62c0-1,.67-1.8,1.81-2.69l.48.3a1.67,1.67,0,0,0-.4,1.11c0,.43.28.69,1.06.69h2.14c2.78,0,3.75,1.08,3.75,2.67,0,1.86-1.85,3.41-5.37,3.41-3,0-3.91-1-3.91-2.14,0-.9.66-1.61,2-2.09l.26.16a2.18,2.18,0,0,0-.53,1.43c0,1.09.77,1.55,2.44,1.55C57.58,39,58.51,38.42,58.51,37.63ZM55.75,26.84c2.61,0,3.82,1.23,3.82,3s-1.22,2.92-3.82,2.92-3.83-1.24-3.83-2.92S53.15,26.84,55.75,26.84Zm-1.23,2.94c0,1.3.37,2.08,1.21,2.08s1.27-.8,1.27-2.1-.43-2.05-1.24-2.05S54.52,28.49,54.52,29.78Zm6.18-3L61,27V28.4H58.36v-.6Z"/><path class="cls-1" d="M62.27,34.61a1.65,1.65,0,1,1,1.65,1.63A1.65,1.65,0,0,1,62.27,34.61Z"/><path class="cls-1" d="M68.16,36c0-.82,0-2.71,0-3.84v-.87c0-1,0-1.58,0-2.31L67,28.78v-.72l3.83-1.22.31.2,0,2.65v2.43c0,1.13,0,3,0,3.84Zm3.9-.85V36H67.21v-.85l1.69-.37h1.38ZM68.08,24a1.55,1.55,0,1,1,1.55,1.45A1.47,1.47,0,0,1,68.08,24Z"/><path class="cls-1" d="M73,31.5a4.64,4.64,0,1,1,9.28,0,4.64,4.64,0,1,1-9.28,0Zm6.19,0c0-2.59-.53-3.74-1.55-3.74S76.05,29,76.05,31.54s.52,3.74,1.55,3.74S79.15,34.15,79.15,31.54Z"/></g></g></svg>